Coordinates
version=1
nRows=9
nColumns=24
inDegrees=yes

Units are S.I. units (second, meters, Newtons, ...)
Angles are in degrees.

endheader
time	pelvis_tilt	pelvis_list	pelvis_rotation	pelvis_tx	pelvis_ty	pelvis_tz	hip_flexion_r	hip_adduction_r	hip_rotation_r	knee_angle_r	ankle_angle_r	subtalar_angle_r	mtp_angle_r	hip_flexion_l	hip_adduction_l	hip_rotation_l	knee_angle_l	ankle_angle_l	subtalar_angle_l	mtp_angle_l	lumbar_extension	lumbar_bending	lumbar_rotation
      2.91500000	    -13.16765568	      7.82035325	     -1.61270642	     -2.33907237	     -0.02785145	     -0.26403960	     16.04860842	    -14.23554639	     -8.11841934	    -57.83882122	    -29.03510094	    -18.69864570	      6.82843198	     29.02067261	      8.17240688	     -5.92489287	    -19.96069318	     -1.61905272	    -14.20205777	    -12.05518951	      9.36651310	     -8.74438638	      4.72266330
      2.92000000	    -13.09295322	      7.71091460	     -1.58951983	     -2.33203126	     -0.02654719	     -0.26476874	     16.99896112	    -14.09711267	     -8.06558208	    -58.80926053	    -27.86367341	    -19.23553988	      7.14670183	     28.28845284	      8.15715085	     -5.91863867	    -19.64472895	     -1.19628344	    -13.89678503	    -11.84638070	      9.23045085	     -8.61201461	      4.56179305
      2.92500000	    -13.02489942	      7.55657317	     -1.60305681	     -2.32502296	     -0.02522217	     -0.26547016	     17.94758201	    -13.89698895	     -7.99896861	    -59.66323051	    -26.67082069	    -19.55546782	      7.52349709	     27.55788506	      8.08019080	     -5.90888613	    -19.31863174	     -0.77971911	    -13.60861374	    -11.62447116	      9.10437486	     -8.41679582	      4.45550330
      2.93000000	    -12.95440693	      7.37882060	     -1.61785937	     -2.31804554	     -0.02388649	     -0.26617516	     18.87292500	    -13.67671995	     -7.96377560	    -60.40313645	    -25.50520673	    -19.70486406	      7.96895543	     26.82238559	      7.98057762	     -5.88539535	    -18.98198764	     -0.40496801	    -13.35348088	    -11.40689482	      8.97307923	     -8.19367956	      4.34081807
      2.93500000	    -12.88264600	      7.18418079	     -1.62927652	     -2.31108873	     -0.02255828	     -0.26688142	     19.77315328	    -13.44314975	     -7.95696120	    -61.03302956	    -24.38080780	    -19.69298421	      8.50400917	     26.08296122	      7.86777046	     -5.83590654	    -18.63571664	     -0.06657795	    -13.13648503	    -11.19909086	      8.83964110	     -7.95022704	      4.21875744
      2.94000000	    -12.81080130	      6.98035837	     -1.62625327	     -2.30416026	     -0.02125448	     -0.26760787	     20.64726880	    -13.20763198	     -7.97975758	    -61.55684947	    -23.30706720	    -19.54083136	      9.15934527	     25.34223988	      7.75522467	     -5.75531704	    -18.27997276	      0.23171421	    -12.96344012	    -11.00721213	      8.70077632	     -7.69582057	      4.08552447
      2.94500000	    -12.73117070	      6.79196827	     -1.60676306	     -2.29719385	     -0.01997063	     -0.26845681	     21.45367879	    -13.01034763	     -7.99221273	    -61.85211584	    -22.92025206	    -19.63470232	     12.78588677	     24.56355218	      7.68683882	     -5.57871739	    -17.85106059	      0.31141283	    -13.01351956	    -10.37760330	      8.56478257	     -7.44635952	      3.94834248
      2.95000000	    -12.66100364	      6.57077629	     -1.57570471	     -2.29029340	     -0.01874214	     -0.26918109	     22.27992388	    -12.76928904	     -8.08804047	    -62.18670111	    -21.90974295	    -19.28583970	     13.25285779	     23.82057500	      7.56708462	     -5.43781355	    -17.48478309	      0.61183091	    -12.85378037	    -10.30438369	      8.42827239	     -7.18005464	      3.79703865
      2.95500000	    -12.55382872	      6.39628186	     -1.57731064	     -2.28343534	     -0.01752335	     -0.26994291	     23.05962451	    -12.57370241	     -8.12344607	    -62.41101843	    -21.05241214	    -18.88759531	     14.64686803	     23.01489846	      7.50929714	     -5.24106695	    -17.05170681	      0.76571881	    -12.95348320	    -10.39507474	      8.25243882	     -6.94463234	      3.69198765
